<svg viewBox="0 0 31 31" xmlns="http://www.w3.org/2000/svg"><path d="M30.905 3.551c0 1.955-1.603 3.545-3.576 3.545-1.977 0-3.577-1.59-3.577-3.545 0-1.961 1.601-3.551 3.577-3.551 1.974 0 3.576 1.59 3.576 3.551zm-23.751 0c0 1.955-1.602 3.545-3.576 3.545-1.977 0-3.577-1.59-3.577-3.545 0-1.961 1.601-3.551 3.577-3.551 1.975 0 3.576 1.59 3.576 3.551zm8.346 20.352c-4.604 0-8.346-3.716-8.346-8.281h-7.154c0 8.479 6.952 15.377 15.5 15.377 8.547 0 15.5-6.899 15.5-15.377h-7.154c0 4.564-3.745 8.281-8.346 8.281z" fill="#FF5F19"/></svg>